# xmcd
#
# Track frame offsets: 
#        150
#        12147
#        23112
#        36032
#        47542
#        58970
#        72215
#        85277
#        96730
#        109610
#        123265
#        135097
#        149150
#        162660
#        176697
#        189817
#        204630
#        217582
#        232715
#        246122
#        260065
#        274392
#        286667
#
# Disc length: 3994 seconds
#
# Revision: 2
# Processed by: cddbd v1.5.2PL0 Copyright (c) Steve Scherf et al.
# Submitted via: ExactAudioCopy v1.0b1
#
DISCID=480f9817
DTITLE=Big John Greer - Rockin' With Big John CD01
DYEAR=1992
DGENRE=Blues
TTITLE0=Rockin' With Big John (mono)
TTITLE1=Clambake Boogie (mono)
TTITLE2=Drinkin' Wine, Spo-Dee-O-Dee (mono)
TTITLE3=Long Tall Gal (mono)
TTITLE4=I Want Ya', I Need Ya' (mono)
TTITLE5=I Found A Dream (mono)
TTITLE6=If I Told You Once (mono)
TTITLE7=Rocking Jenny Jones (mono)
TTITLE8=I'll Never Do That Again (mono)
TTITLE9=I've Just Found Love (mono)
TTITLE10=Big John's A Blowin' (mono)
TTITLE11=When You Love (mono)
TTITLE12=I'll Never Be Free (mono)
TTITLE13=Cheatin' (mono)
TTITLE14=How Can You Forget (mono)
TTITLE15=Red Juice (mono)
TTITLE16=It's Better To Be Taken For Granted (mono)
TTITLE17=Once There Lived A Fool (mono)
TTITLE18=A Fool Hasn't Got A Chance (mono)
TTITLE19=Why Did You Go (mono)
TTITLE20=Our Wedding Tune (mono)
TTITLE21=I Ain't Got Nothin' To Lose (mono)
TTITLE22=Little Girl, Don't Cry (mono)
EXTD=
EXTT0=
EXTT1=
EXTT2=
EXTT3=
EXTT4=
EXTT5=
EXTT6=
EXTT7=
EXTT8=
EXTT9=
EXTT10=
EXTT11=
EXTT12=
EXTT13=
EXTT14=
EXTT15=
EXTT16=
EXTT17=
EXTT18=
EXTT19=
EXTT20=
EXTT21=
EXTT22=
PLAYORDER=
